<svg width="298" height="251" viewBox="0 0 298 251" fill="none" xmlns="http://www.w3.org/2000/svg">
<path d="M67.8453 157.191L55.6558 109.481L214.253 68.9603L216.578 78.0609" stroke="black" stroke-width="2"/>
<path d="M73.6277 179.823L82.908 216.146L86.3327 215.271" stroke="black" stroke-width="2"/>
<path d="M141.743 209.26L148.443 207.631" stroke="black" stroke-width="2" stroke-linecap="round"/>
<path d="M159.126 205.095L214.444 191.769" stroke="black" stroke-width="2" stroke-linecap="round"/>
<path d="M137.758 210.164L87.8454 221.891L76.5549 174.492" stroke="black" stroke-width="2" stroke-linecap="round"/>
<path d="M72.5646 157.835L62.2996 114.803L221.524 76.8207L236.738 140.599" stroke="black" stroke-width="2" stroke-linecap="round"/>
<path d="M23.3344 95.2862C21.7461 95.6269 20.2302 96.1263 18.7968 96.7524L19.5664 100.34C17.6559 101.259 15.9417 102.443 14.4467 103.864L11.3658 101.872C10.2503 103.012 9.27874 104.278 8.41555 105.613C7.55233 106.947 6.79624 108.353 6.21347 109.838L9.29438 111.831C8.61086 113.777 8.23415 115.826 8.17993 117.945L4.59221 118.715C4.60912 120.279 4.77542 121.866 5.1161 123.455C5.45678 125.043 5.95613 126.559 6.58221 127.992L10.1699 127.223C11.0885 129.133 12.2724 130.847 13.6941 132.342L11.7015 135.423C12.8421 136.539 14.1081 137.51 15.4427 138.373C16.7773 139.237 18.1827 139.993 19.6678 140.575L21.6605 137.495C23.607 138.178 25.6559 138.555 27.7751 138.609L28.5447 142.197C30.1088 142.18 31.6961 142.013 33.2844 141.673C34.8726 141.332 36.3885 140.833 37.822 140.207L37.0524 136.619C38.9629 135.7 40.677 134.516 42.172 133.095L45.2529 135.087C46.3684 133.947 47.34 132.681 48.2032 131.346C49.0664 130.012 49.8225 128.606 50.4053 127.121L47.3244 125.128C48.0079 123.182 48.3846 121.133 48.4388 119.014L52.0265 118.244C52.0096 116.68 51.8433 115.093 51.5027 113.505C51.162 111.916 50.6626 110.4 50.0365 108.967L46.4488 109.737C45.5302 107.826 44.3463 106.112 42.9246 104.617L44.9173 101.536C43.7766 100.42 42.5107 99.4489 41.176 98.5857C39.8414 97.7225 38.4361 96.9664 36.9509 96.3836L34.9583 99.4645C33.0117 98.781 30.9628 98.4043 28.8437 98.3501L28.0741 94.7624C26.51 94.7793 24.9226 94.9456 23.3344 95.2862V95.2862ZM25.8219 106.883C32.2232 105.51 38.5329 109.591 39.906 115.992C41.2791 122.393 37.1982 128.703 30.7969 130.076C24.3955 131.449 18.0858 127.368 16.7127 120.967C15.3396 114.566 19.4205 108.256 25.8219 106.883Z" fill="black"/>
<path d="M115.697 125.693C114.117 126.07 112.613 126.604 111.195 127.263L112.046 130.832C110.157 131.794 108.47 133.017 107.008 134.472L103.883 132.551C102.794 133.716 101.851 135.004 101.019 136.358C100.186 137.712 99.4625 139.135 98.9138 140.633L102.039 142.554C101.401 144.516 101.071 146.573 101.065 148.693L97.496 149.544C97.5487 151.108 97.7512 152.691 98.1281 154.271C98.505 155.851 99.0389 157.355 99.6976 158.774L103.267 157.922C104.229 159.811 105.452 161.498 106.907 162.96L104.986 166.086C106.151 167.175 107.439 168.117 108.793 168.949C110.147 169.782 111.569 170.506 113.068 171.054L114.989 167.929C116.951 168.568 119.008 168.897 121.128 168.903L121.979 172.472C123.542 172.42 125.126 172.217 126.706 171.84C128.286 171.463 129.79 170.929 131.209 170.271L130.357 166.701C132.246 165.739 133.933 164.517 135.395 163.061L138.52 164.983C139.61 163.817 140.552 162.529 141.384 161.175C142.217 159.821 142.941 158.399 143.489 156.901L140.364 154.979C141.002 153.017 141.332 150.96 141.338 148.84L144.907 147.989C144.854 146.426 144.652 144.843 144.275 143.262C143.898 141.682 143.364 140.178 142.705 138.76L139.136 139.611C138.174 137.722 136.951 136.035 135.496 134.573L137.418 131.448C136.252 130.359 134.964 129.416 133.61 128.584C132.256 127.751 130.834 127.027 129.336 126.479L127.414 129.605C125.452 128.966 123.395 128.636 121.275 128.63L120.424 125.061C118.861 125.114 117.277 125.316 115.697 125.693V125.693ZM118.45 137.23C124.818 135.711 131.219 139.646 132.738 146.015C134.257 152.383 130.322 158.784 123.954 160.303C117.585 161.822 111.184 157.887 109.665 151.519C108.146 145.15 112.081 138.749 118.45 137.23Z" stroke="black" stroke-width="2" stroke-linecap="round" stroke-linejoin="round"/>
<path d="M128.377 178.437C127.617 178.618 126.894 178.875 126.212 179.192L126.621 180.908C125.713 181.371 124.902 181.959 124.198 182.659L122.695 181.735C122.171 182.295 121.718 182.915 121.318 183.566C120.918 184.217 120.569 184.901 120.306 185.622L121.809 186.546C121.502 187.489 121.343 188.478 121.34 189.498L119.624 189.907C119.649 190.659 119.747 191.42 119.928 192.18C120.109 192.94 120.366 193.664 120.683 194.346L122.399 193.936C122.862 194.845 123.45 195.656 124.15 196.359L123.226 197.862C123.786 198.386 124.406 198.839 125.057 199.24C125.708 199.64 126.392 199.988 127.112 200.252L128.037 198.749C128.98 199.056 129.969 199.215 130.989 199.217L131.398 200.934C132.15 200.908 132.911 200.811 133.671 200.63C134.431 200.448 135.154 200.192 135.837 199.875L135.427 198.158C136.336 197.696 137.147 197.108 137.85 196.408L139.353 197.332C139.877 196.771 140.33 196.152 140.73 195.501C141.131 194.85 141.479 194.166 141.743 193.445L140.24 192.521C140.547 191.578 140.705 190.588 140.708 189.569L142.425 189.159C142.399 188.408 142.302 187.646 142.121 186.886C141.939 186.126 141.683 185.403 141.366 184.721L139.649 185.13C139.187 184.222 138.599 183.411 137.899 182.708L138.823 181.204C138.262 180.681 137.643 180.227 136.992 179.827C136.34 179.427 135.656 179.079 134.936 178.815L134.012 180.318C133.068 180.011 132.079 179.852 131.06 179.849L130.65 178.133C129.898 178.158 129.137 178.256 128.377 178.437V178.437ZM129.701 183.985C132.763 183.255 135.842 185.147 136.572 188.21C137.303 191.272 135.41 194.351 132.348 195.082C129.285 195.812 126.207 193.919 125.476 190.857C124.745 187.794 126.638 184.716 129.701 183.985Z" stroke="black" stroke-opacity="0.7" stroke-width="2" stroke-linecap="round" stroke-linejoin="round"/>
<path d="M215.794 173.606L223.688 155.259C231.035 138.181 251.825 131.599 267.663 141.336C283.528 151.09 287.019 172.664 275.038 186.923L262.189 202.214C253.408 212.664 238.299 215.109 226.671 207.96C215.02 200.797 210.389 186.17 215.794 173.606Z" stroke="black" stroke-width="2"/>
<path d="M220.635 164.159L223.781 156.31C230.691 139.067 251.464 132.202 267.288 141.931C283.144 151.679 286.37 173.374 274.036 187.313L268.432 193.647C259.257 204.016 243.957 206.29 232.163 199.039C220.34 191.77 215.472 177.042 220.635 164.159Z" fill="black"/>
<circle cx="121.183" cy="148.597" r="4.97548" transform="rotate(-13.417 121.183 148.597)" stroke="black" stroke-width="2"/>
<circle cx="121.183" cy="148.597" r="7.51053" transform="rotate(-13.417 121.183 148.597)" stroke="black" stroke-width="2"/>
<path d="M112.662 112.095L134.678 204.389" stroke="black" stroke-width="2" stroke-linecap="round" stroke-dasharray="12 12"/>
<path d="M152.316 100.402L167.946 165.924" stroke="black" stroke-width="2" stroke-linecap="round" stroke-dasharray="12 12"/>
<path d="M176.327 96.4502L194.142 171.131" stroke="black" stroke-width="2" stroke-linecap="round" stroke-dasharray="12 12"/>
<path d="M202.408 98.1343L216.61 157.667" stroke="black" stroke-width="2" stroke-linecap="round" stroke-dasharray="12 12"/>
<path d="M108.687 195.324L152.016 184.988" stroke="black" stroke-width="2" stroke-linecap="round" stroke-dasharray="12 12"/>
<path d="M86.1736 157.135L219.33 125.371" stroke="black" stroke-width="2" stroke-linecap="round" stroke-dasharray="12 12"/>
<path d="M109.78 199.904L114.359 198.812" stroke="black" stroke-width="2" stroke-linecap="round"/>
<path d="M159.146 183.661L189.441 176.434" stroke="black" stroke-width="2" stroke-linecap="round"/>
<path d="M160.154 187.888L187.983 181.249" stroke="black" stroke-width="2" stroke-linecap="round"/>
<path d="M160.742 190.354L175.889 186.74" stroke="black" stroke-width="2" stroke-linecap="round"/>
<path d="M110.368 202.37L119.88 200.101" stroke="black" stroke-width="2" stroke-linecap="round"/>
<path d="M164.634 126.914L169.73 118.624" stroke="black" stroke-opacity="0.6" stroke-width="2" stroke-linecap="round"/>
<path d="M161.979 140.914L181.024 109.937" stroke="black" stroke-opacity="0.6" stroke-width="2" stroke-linecap="round"/>
<path d="M166.611 143.059L172.798 132.993M184.929 113.437L178.586 123.582" stroke="black" stroke-opacity="0.6" stroke-width="2" stroke-linecap="round"/>
<path d="M170.08 147.097L174.83 139.37M190.466 113.938L185.828 121.482" stroke="black" stroke-opacity="0.6" stroke-width="2" stroke-linecap="round"/>
<path d="M172.031 153.606L178.439 143.182M196.699 113.256L190.724 123.215" stroke="black" stroke-opacity="0.6" stroke-width="2" stroke-linecap="round"/>
<path d="M178.228 153.208L183.013 145.424M199.234 119.232L194.707 126.294" stroke="black" stroke-opacity="0.6" stroke-width="2" stroke-linecap="round"/>
<path d="M183.888 153.683L188.872 145.475M201.95 123.941L196.699 132.814" stroke="black" stroke-opacity="0.6" stroke-width="2" stroke-linecap="round"/>
<path d="M187.938 156.774L207.02 125.389" stroke="black" stroke-opacity="0.6" stroke-width="2" stroke-linecap="round"/>
<path d="M198.696 148.957L204.486 139.511" stroke="black" stroke-opacity="0.6" stroke-width="2" stroke-linecap="round"/>
<path d="M179.227 110.585C177.647 110.962 176.143 111.496 174.724 112.154L175.575 115.723C173.686 116.685 172 117.908 170.538 119.364L167.412 117.442C166.323 118.608 165.38 119.896 164.548 121.25C163.716 122.604 162.992 124.026 162.443 125.524L165.569 127.446C164.93 129.408 164.6 131.465 164.594 133.584L161.025 134.436C161.078 135.999 161.281 137.582 161.657 139.162C162.034 140.742 162.568 142.246 163.227 143.665L166.796 142.814C167.758 144.703 168.981 146.389 170.436 147.851L168.515 150.977C169.681 152.066 170.968 153.009 172.323 153.841C173.677 154.674 175.099 155.397 176.597 155.946L178.519 152.82C180.48 153.459 182.537 153.789 184.657 153.795L185.508 157.364C187.072 157.311 188.655 157.109 190.235 156.732C191.815 156.355 193.319 155.821 194.738 155.162L193.886 151.593C195.775 150.631 197.462 149.408 198.924 147.953L202.05 149.874C203.139 148.708 204.081 147.421 204.914 146.067C205.746 144.713 206.47 143.29 207.019 141.792L203.893 139.871C204.532 137.909 204.862 135.852 204.867 133.732L208.436 132.881C208.384 131.317 208.181 129.734 207.804 128.154C207.427 126.574 206.893 125.07 206.235 123.651L202.666 124.503C201.704 122.614 200.481 120.927 199.025 119.465L200.947 116.339C199.781 115.25 198.493 114.308 197.139 113.475C195.785 112.643 194.363 111.919 192.865 111.37L190.943 114.496C188.981 113.857 186.924 113.528 184.805 113.522L183.953 109.953C182.39 110.005 180.807 110.208 179.227 110.585V110.585ZM181.979 122.121C188.347 120.602 194.748 124.538 196.268 130.906C197.787 137.274 193.851 143.676 187.483 145.195C181.115 146.714 174.713 142.779 173.194 136.41C171.675 130.042 175.611 123.641 181.979 122.121Z" stroke="black" stroke-width="2" stroke-linecap="round" stroke-linejoin="round"/>
<path d="M79.1765 134.046L132.193 121.399" stroke="black" stroke-width="2" stroke-linecap="round"/>
<path d="M110.13 175.621L142.891 167.806" stroke="black" stroke-width="2" stroke-linecap="round"/>
<path d="M152.93 165.41L206.299 152.679" stroke="black" stroke-width="2" stroke-linecap="round"/>
<path d="M163.763 114.054L196.171 106.323" stroke="black" stroke-width="2" stroke-linecap="round"/>
<path d="M165.455 214.956C164.006 213.326 162.376 210.972 162.014 208.437C161.765 206.693 159.902 205.48 158.755 205.54" stroke="black" stroke-width="2" stroke-linecap="round"/>
<path d="M158.936 208.439C158.936 207.111 159.045 204.491 155.858 204.636" stroke="black" stroke-width="2" stroke-linecap="round"/>
<path d="M156.582 207.172C156.099 205.784 154.731 203.152 152.269 204.456" stroke="black" stroke-width="2" stroke-linecap="round"/>
<path d="M154.59 208.801C153.806 208.318 152.78 206.338 152.055 203.731C151.331 201.123 147.528 198.902 145.718 198.117C144.752 197.695 142.82 197.465 142.82 199.928C142.82 202.101 148.144 203.984 148.434 207.171C148.723 210.358 148.554 211.758 148.434 212.06C148.132 212.664 147.058 213.4 145.174 211.517C143.291 209.634 140.829 209.163 139.561 209.525C138.475 209.887 136.954 211.119 139.561 213.147C141.498 214.653 147.854 217.456 153.504 224.554" stroke="black" stroke-width="2" stroke-linecap="round"/>
<path d="M215.38 243.136C200.604 229.085 179.889 216.321 170.983 216.321C154.868 216.321 155.098 224.16 157.297 228.262C157.367 228.391 157.448 228.503 157.546 228.611C162.16 233.698 173.096 244.84 181.124 250.001" stroke="black" stroke-width="2" stroke-linecap="round"/>
<path d="M16.8003 239.443C20.2769 234.517 29.3548 220.883 33.2781 214.273C35.9649 209.746 37.9795 204.713 38.7104 201.292C40.159 194.51 44.3237 182.279 56.9989 199.119C59.9973 203.102 62.9144 206.74 50.7823 230.28" stroke="black" stroke-width="2" stroke-linecap="round"/>
<path d="M61.9227 195.352C64.5725 192.091 69.3625 186.995 71.2989 183.428L74.4583 178.027C76.5985 174.588 77.5145 171.785 78.3324 170.265C78.6959 169.59 78.9222 169.077 79.4256 168.073C79.8825 167.161 80.2845 166.241 79.9655 165.486C79.7214 164.908 78.7026 163.896 76.5809 164.474C74.4592 165.051 73.0122 166.843 72.554 167.667C72.095 168.349 70.1023 170.822 69.5565 171.365C68.2883 172.626 62.0406 177.856 58.1442 174.792" stroke="black" stroke-width="2" stroke-linecap="round"/>
<path d="M57.3861 169.726C60.6205 168.016 66.9035 164.934 69.0922 162.817C71.34 162.382 76.891 163.109 76.3308 160.128C76.2141 159.507 74.2597 157.967 71.3542 157.444C69.2635 157.068 67.7475 156.921 66.0106 157.855C65.0259 158.384 64.6353 158.572 63.3639 159.416C62.377 159.851 61.7758 160.354 60.97 160.908C60.1421 161.477 58.9431 162.381 57.2658 163.964" stroke="black" stroke-width="2" stroke-linecap="round"/>
<path d="M63.364 159.417C62.8365 159.13 60.5568 159.149 57.8694 160.48C54.9337 161.934 54.4322 162.485 53.2954 163.235C52.1586 163.985 49.885 165.485 48.9949 166.209C47.4201 167.489 45.985 168.932 45.4184 169.66C44.4209 171.201 44.9768 172.366 46.4762 175.235" stroke="black" stroke-width="2" stroke-linecap="round"/>
<path d="M47.3752 180.559C47.3752 182.469 46.9414 186.993 45.6165 190.764" stroke="black" stroke-width="2" stroke-linecap="round"/>
<path d="M73.6568 166.209L48.0872 180.18C44.9979 181.388 42.8489 177.154 46.0904 175.724L57.368 169.711M77.2135 164.217L81.9422 161.66L79.7028 158.08L76.5017 159.697" stroke="black" stroke-width="2" stroke-linecap="round"/>
<path d="M82.58 161.313L85.2461 157.367" stroke="black" stroke-width="2" stroke-linecap="round"/>
<path d="M80.3378 157.746L85.2461 157.367" stroke="black" stroke-width="2" stroke-linecap="round"/>
<path d="M92.5392 82.2862C93.0623 87.7415 85.3141 88.7971 84.9799 82.5544L84.2214 33.4824L83.9783 21.5806C83.9554 20.4603 84.8573 19.5397 85.9779 19.5397L91.1797 19.5397M92.5392 82.2862L91.6458 33.4829L91.1797 19.5397M92.5392 82.2862L101.136 82.2862C102.278 82.2862 103.188 81.331 103.133 80.1899L100.881 33.4829L100.322 21.447C100.272 20.3797 99.3926 19.5397 98.3241 19.5397L91.1797 19.5397" stroke="black" stroke-width="2" stroke-linecap="round"/>
<path d="M108.09 35.382L165.814 2.05499C169.575 -0.116461 174.384 1.17218 176.556 4.93325L194.31 35.685C196.482 39.446 195.193 44.2553 191.432 46.4268L133.708 79.7537C129.947 81.9252 125.138 80.6366 122.966 76.8755L105.212 46.1238C103.04 42.3627 104.329 37.5534 108.09 35.382Z" stroke="black" stroke-width="2"/>
<ellipse cx="111.944" cy="42.0353" rx="1.99183" ry="2.1729" transform="rotate(-30 111.944 42.0353)" fill="black"/>
<path d="M177.289 44.0356L188.58 37.5169M183.036 44.8994L190.39 40.6533" stroke="black" stroke-width="2" stroke-linecap="round"/>
<path d="M125.436 62.8213C127.705 61.2204 133.976 59.401 141.836 63.9279C142.552 64.3405 143.48 63.8119 143.447 62.9858C143.071 53.5766 144.153 44.0806 161.974 43.7415C163.011 43.7218 163.542 42.1395 162.774 41.4429C157.796 36.9286 153.145 28.6306 159.798 18.5395C160.223 17.8945 159.645 16.9991 158.895 17.1822V17.1822C158.047 17.3888 157.599 16.4117 158.347 15.9636C161.057 14.3413 163.946 13.2266 163.576 15.446C163.039 18.6687 163.394 20.3051 165.149 22.3326" stroke="black" stroke-width="2" stroke-linecap="round"/>
</svg>
