<svg width="181" height="152" viewBox="0 0 181 152" fill="none" xmlns="http://www.w3.org/2000/svg">
<path d="M157.014 70.1098V52.335C157.014 49.5735 154.776 47.335 152.014 47.335H67.9782C65.2168 47.335 62.9782 49.5735 62.9782 52.335V107.126C62.9782 109.887 65.2168 112.126 67.9782 112.126H117.865" stroke="black" stroke-width="2" stroke-linecap="round"/>
<path d="M73.995 95.6333H92.8809" stroke="black" stroke-width="2" stroke-linecap="round"/>
<path d="M99.1761 95.6333H101.93" stroke="black" stroke-width="2" stroke-linecap="round"/>
<rect x="64.1586" y="55.9739" width="91.6755" height="10.9948" fill="black"/>
<ellipse cx="141.67" cy="97.5969" rx="11.4103" ry="11.3874" fill="black"/>
<path fill-rule="evenodd" clip-rule="evenodd" d="M0.488637 81.679C-0.197381 91.323 3.85662 112.706 25.5595 124.142C25.6803 124.206 25.8203 124.215 25.9454 124.161C35.0514 120.188 52.609 106.309 51.8161 81.6723C51.8096 81.4693 51.663 81.2906 51.4657 81.2423C50.7744 81.0732 50.1127 80.9138 49.4765 80.7606C40.2413 78.5359 36.3997 77.6106 26.1023 67.2382C25.9163 67.0509 25.6061 67.0519 25.4277 67.2464C21.5572 71.4683 11.8063 79.5878 0.875657 81.2722C0.6657 81.3046 0.50371 81.4671 0.488637 81.679ZM34.8104 89.6905C35.4567 88.7948 35.2544 87.5447 34.3586 86.8984C33.4629 86.2522 32.2128 86.4545 31.5665 87.3502L24.1032 97.6952L20.6869 93.0209C20.0351 92.1291 18.7838 91.9346 17.8921 92.5863C17.0003 93.2381 16.8057 94.4894 17.4575 95.3812L22.1287 101.772C23.1135 103.12 25.1265 103.114 26.1029 101.76L34.8104 89.6905Z" fill="black"/>
<path d="M149.958 87.3828C151.078 87.004 152.28 86.7983 153.531 86.7983C159.598 86.7983 164.515 91.633 164.515 97.5968C164.515 103.561 159.598 108.395 153.531 108.395C152.28 108.395 151.078 108.19 149.958 107.811" stroke="black" stroke-width="2" stroke-linecap="round"/>
<path d="M31.7959 56.1702C40.5087 24.3715 69.6652 1 104.291 1C145.796 1 179.442 34.5786 179.442 76C179.442 117.421 145.796 151 104.291 151C81.2226 151 60.5815 140.626 46.7961 124.298" stroke="black" stroke-width="2" stroke-linecap="round"/>
</svg>
