<svg width="165" height="152" viewBox="0 0 165 152" fill="none" xmlns="http://www.w3.org/2000/svg">
<path d="M25.1147 111.55V100.481V85.9596C25.1147 82.4329 25.6138 79.3557 21.3686 79.1137C17.1234 78.8717 15.1019 83.6776 7.8243 82.018C3.98346 81.1421 0.749027 77.2467 0.749023 72.6828C0.749017 64.7997 9.30469 60.0433 17.5276 65.2146C25.1147 69.9859 25.1147 61.0656 25.1147 58.1613V40.2461C25.1147 39.1415 26.0101 38.2461 27.1147 38.2461H53.8204C59.4806 38.661 56.044 45.0919 54.4268 49.0335C51.1924 56.9166 55.5723 61.3422 58.672 62.5177C69.5883 65.2146 72.2162 53.5974 68.5775 49.0335C63.6022 42.7932 64.9387 38.8684 67.3646 38.8684H92.908C94.07 38.8684 95.0021 39.856 94.9847 41.0178C94.9257 44.9675 95.0595 52.237 95.0595 59.406C95.0595 70.1934 104.763 66.6667 104.763 66.8742C104.763 67.0816 119.303 63.0005 120.531 74.3424C121.339 81.8106 113.455 86.5818 104.763 83.8849C97.8088 81.7273 96.6767 84.3 96.6767 86.5818V111.55C96.6767 112.655 95.7813 113.55 94.6767 113.55H66.6689C65.9711 113.55 65.3126 113.187 64.9885 112.569C61.8615 106.608 65.1935 103.704 67.1624 98.8214C69.5883 92.8054 66.937 87.7952 62.9172 86.5818C57.6612 84.9953 48.3622 87.8266 52.2031 98.8214C55.165 107.3 55.0332 113.55 50.1816 113.55H27.1147C26.0101 113.55 25.1147 112.655 25.1147 111.55Z" fill="black"/>
<path d="M94.5818 39.8662H117.861C120.695 39.8662 125.864 37.2832 124.137 26.916C122.315 15.9841 131.007 16.0751 134.663 17.4008C136.552 18.0762 139.764 20.925 137.497 26.916C134.663 34.4049 136.485 40.2775 142.355 40.2775H161.408C162.513 40.2775 163.408 41.173 163.408 42.2775V110.519C163.408 111.631 162.505 112.53 161.393 112.521C156.078 112.476 141.901 112.375 139.117 112.539C135.675 112.741 136.272 116.496 138.307 121.243C141.343 128.328 138.205 136.974 127.983 135.211C122.112 134.199 119.683 127.924 122.112 121.243C124.542 114.563 121.708 112.539 119.076 112.539C113.729 112.539 101.222 112.471 95.8914 112.539" stroke="black" stroke-width="2" stroke-linecap="round"/>
<path d="M97.7134 135.413C98.9954 137.64 101.641 142.458 101.964 143.915" stroke="black" stroke-width="2" stroke-linecap="round"/>
<path d="M92.6526 136.627C91.9778 138.449 91.6404 143.874 95.6891 151" stroke="black" stroke-width="2" stroke-linecap="round"/>
<path d="M84.9603 135.413C82.3287 137.842 76.9441 143.51 76.4583 146.749" stroke="black" stroke-width="2" stroke-linecap="round"/>
<path d="M93.4623 16.5869C96.0939 14.1577 101.479 8.48969 101.964 5.25079" stroke="black" stroke-width="2" stroke-linecap="round"/>
<path d="M85.77 15.3726C86.4448 13.5507 86.7822 8.12554 82.7336 0.999977" stroke="black" stroke-width="2" stroke-linecap="round"/>
<path d="M80.7092 16.5869C79.4272 14.3602 76.7821 9.54233 76.4582 8.08482" stroke="black" stroke-width="2" stroke-linecap="round"/>
</svg>
